<svg id="Capa_1" enable-background="new 0 0 497 497" height="24" viewBox="0 0 24 497" width="50" xmlns="http://www.w3.org/2000/svg"><g><path d="m353.5 45v-15c0-16.569-13.431-30-30-30h-30l30 30v15c0 16.569 13.431 30 30 30l30 30v-30c0-16.569-13.431-30-30-30z" fill="#ffe341"/><path d="m293.5 0h-120c-16.569 0-30 13.431-30 30v15c-16.569 0-30 13.431-30 30v30l30-30c16.569 0 30-13.431 30-30v-15h150c0-16.569-13.431-30-30-30z" fill="#fff1a0"/><path d="m437 226v271h30c16.569 0 30-13.431 30-30v-241z" fill="#ff4c3b"/><path d="m467 467v-241h-467v241c0 16.569 13.431 30 30 30h407c16.569 0 30-13.431 30-30z" fill="#ff6c4a"/><path d="m467 75h-30l-30 302h30c33.137 0 60-26.863 60-60v-212c0-16.569-13.431-30-30-30z" fill="#ff6c4a"/><path d="m437 75h-143.5l-45 45-45-45h-173.5c-16.569 0-30 13.431-30 30v212c0 33.137 26.863 60 60 60h347c33.137 0 60-26.863 60-60v-212c0-16.569-13.431-30-30-30z" fill="#ff8c59"/><path d="m263.5 362-15 105c24.853 0 45-20.147 45-45v-30z" fill="#ffe341"/><path d="m263.5 422v-60l-60 30v30c0 24.853 20.147 45 45 45 8.284 0 15-20.147 15-45z" fill="#fff1a0"/><path d="m248.5 60-15 219 30 113h30v-317c0-8.284-6.716-15-15-15z" fill="#ffa951"/><path d="m203.5 75v317h60v-317c0-8.284-6.716-15-15-15h-30c-8.284 0-15 6.716-15 15z" fill="#ffcd79"/><circle cx="248.5" cy="429.5" fill="#0e3e4c" r="7.5"/><path d="m263.5 302v45h30c8.284 0 15-6.716 15-15v-15c0-8.284-6.716-15-15-15z" fill="#ff4c3b"/><path d="m188.5 317v15c0 8.284 6.716 15 15 15h60c8.284 0 15-6.716 15-15v-15c0-8.284-6.716-15-15-15h-60c-8.284 0-15 6.716-15 15z" fill="#ff6c4a"/></g></svg>
